<?xml version="1.0" encoding="utf-8"?>
<!-- Generator: Adobe Illustrator 18.1.1, SVG Export Plug-In . SVG Version: 6.00 Build 0)  -->
<svg version="1.1" id="Layer_1" xmlns="http://www.w3.org/2000/svg" xmlns:xlink="http://www.w3.org/1999/xlink" x="0px" y="0px"
	 viewBox="0 0 100 100" enable-background="new 0 0 100 100" xml:space="preserve">
<path d="M82.9,56.4c0-1.4-0.1-2.9,0-4.3c0.2-2.3-0.7-4.1-2.4-5.4c-4.7-3.8-5.3-12-2.4-17c2.9-4.9,8-4.9,10.8,0
	c2.9,5,2.3,13.2-2.3,16.9C84.8,48,84,50,84.2,52.4c0.5,8.1,0.9,16.1,1.4,24.2c0.1,2,0.3,4,0.4,5.9c0,0.7-0.1,1.3-0.2,2
	c-0.3,1-1,1.6-2.1,1.7c-1.1,0-1.9-0.5-2.2-1.6c-0.2-1-0.4-2.1-0.3-3.1c0.5-8.1,1.1-16.3,1.7-24.4C82.9,56.8,82.9,56.5,82.9,56.4
	L82.9,56.4z"/>
<path d="M11.3,56C11,39.3,23.4,26.1,39,24.6c17.4-1.8,33,11.2,33.9,29.1c0.9,16.8-11.8,31.3-29,32.3C26.8,86.9,11.9,73.9,11.3,56z
	 M42.1,84.6c16.2,0,29.5-13.1,29.5-29.2c0-16.4-13.2-29.7-29.4-29.6S12.8,39,12.8,55.2C12.8,71.4,25.9,84.6,42.1,84.6z"/>
<path d="M98.8,52.5c0.2,6.1,0.4,12.2,0.6,18.2c0.1,3.5,0.4,6.9,0.5,10.4c0,1.1-0.1,2.3-0.3,3.3c-0.2,0.9-0.9,1.5-2,1.5
	s-1.9-0.6-2.1-1.5c-0.2-1.6-0.3-3.3-0.2-5c0.2-7.9,0.4-15.7,0.6-23.6c0-0.7-0.1-1.4-0.3-2.1c-2-5.1-2.3-10.5-1.9-15.9
	c0.2-2.7,0.7-5.4,1.4-8c0.3-1.2,1-2.3,1.8-3.4c0.3-0.4,1.1-0.7,1.6-0.6c0.3,0.1,0.7,0.9,0.7,1.4c0,8.4,0,16.8,0,25.1
	C99.1,52.5,99,52.5,98.8,52.5z"/>
<path d="M1.2,26.6c0.2,4.1,0.4,8.3,0.7,12.4c0.1,0,0.2,0,0.4,0c0.3-4.2,0.5-8.4,0.8-12.6c0.1,0,0.1,0,0.2,0C3.5,30.5,3.8,34.8,4,39
	c0.1,0,0.2,0,0.3,0c0.2-4.2,0.5-8.4,0.7-12.7c0.1,0,0.1,0,0.2,0C5.5,30.5,5.7,34.8,6,39c0.1,0,0.2,0,0.4,0c0.2-4.1,0.4-8.2,0.7-12.2
	c0.1,0,0.1,0,0.2,0c0.1,1.2,0.2,2.4,0.3,3.5c0.3,3.7,0.5,7.4,0.8,11.1c0,0.6,0,1.1-0.7,1.4c-1.8,1-2.8,2.6-2.8,4.7
	C5,51.8,5,56,5.2,60.4c0.3,6.3,0.8,12.7,1.2,19c0.1,1.5,0.2,3,0,4.5c-0.2,1.6-1,2.2-2.3,2.2c-1.2,0-2.1-0.6-2.2-2.1
	c-0.2-2.2,0-4.3,0.1-6.5c0.4-7.5,0.9-15,1.3-22.4c0.1-2.6,0.1-5.3,0.1-7.9c0-1.9-1.1-3.2-2.6-4.3c-0.3-0.2-0.7-0.7-0.7-1
	c0.3-5.1,0.6-10.1,1-15.2C1,26.6,1.1,26.6,1.2,26.6z"/>
<path d="M55.2,19.3c-4.4-0.3-8.7-0.6-13.1-0.9c-2.1-0.1-3.8,0.1-5.4,1.8c-1.9,2.1-6.3,2-8.6,0.3c-2-1.4-2-3.7-0.1-5.2
	c2.4-1.9,6.8-1.8,9,0.5c1.2,1.3,2.5,1.7,4.1,1.6c4.5-0.3,9-0.6,13.5-0.9c0.5,0,1,0,1.5,0c0.9,0.2,1.5,0.6,1.5,1.5s-0.7,1.2-1.5,1.3
	C55.8,19.4,55.5,19.3,55.2,19.3L55.2,19.3z"/>
<path d="M42,79.3c-13.3,0-24.1-10.9-24-24.2C18,41.4,29.5,30.7,42.7,31c12.9,0.3,23.7,11.2,23.6,24.4C66.1,68.7,55.4,79.3,42,79.3z
	 M42.2,75.9c11.4,0,20.7-9.3,20.7-20.7c0-11.6-9.3-20.8-21.1-20.7c-11.3,0.1-20.6,9.7-20.3,21.1C21.6,66.8,30.9,75.9,42.2,75.9z"/>
<path d="M42.1,74.9c-11,0-19.7-8.9-19.6-19.9c0-10.7,9-19.4,19.9-19.4c10.7,0,19.5,9,19.4,19.8C61.7,66.2,52.9,74.9,42.1,74.9z"/>
</svg>
