<?xml version="1.0" encoding="utf-8"?>
<!-- Generator: Adobe Illustrator 18.1.1, SVG Export Plug-In . SVG Version: 6.00 Build 0)  -->
<svg version="1.1" id="Layer_1" xmlns="http://www.w3.org/2000/svg" xmlns:xlink="http://www.w3.org/1999/xlink" x="0px" y="0px"
	 viewBox="0 0 100 100" enable-background="new 0 0 100 100" xml:space="preserve">
<path d="M61.8,78.7c-0.9,0-1.5,0-2.2,0c-6.8,0-13.6,0-20.3,0c-1.1,0-1.4-0.3-1.4-1.4c0.1-1.6-0.1-3.1,0-4.7c0.2-1.9-0.4-3.5-1.5-5.1
	c-2.1-2.9-4-5.9-6.2-8.7c-8-10.4-7.5-24.3,1.7-33.6c7-7,15.6-9.3,25-6.5c9.4,2.8,15.4,9.2,17.5,18.7c1.8,7.8,0,14.8-4.8,21.1
	c-2.6,3.4-4.9,7-7.2,10.5c-0.4,0.6-0.6,1.5-0.7,2.3C61.7,73.8,61.8,76.1,61.8,78.7z M48.7,56.1c0.1,0,0.2,0,0.3,0
	c0.8-2,1.7-4,2.6-6.2c0.8,2.3,1.5,4.3,2.2,6.3c3.4-0.2,3.9-2.7,4.2-5.3c0.6,0.2,1,0.3,1.5,0.4c-1.8,8.6-3.7,17.1-5.5,25.7
	c2.2,0,4.2,0,6.3,0c0-2.2,0-4.3,0-6.3c0-0.6,0.2-1.3,0.5-1.8c2.5-3.7,4.9-7.6,7.7-11.2c4.2-5.6,5.9-11.7,4.9-18.5
	C71.5,26.7,59,17.5,46.5,19.5C28.2,22.4,20,43.3,31.4,57.8c2.5,3.3,4.8,6.8,7.1,10.3c0.5,0.8,0.8,2,0.9,3c0.1,2,0,4,0,6
	c2.2,0,4.3,0,6.4,0c-1.9-8.7-3.8-17.1-5.6-25.7c0.7-0.1,1.1-0.2,1.7-0.4c0.4,1.6,0.8,3.1,1.1,4.8c1.7-1.1,3.2-2.1,4.8-3.1
	C48.1,53.9,48.4,55,48.7,56.1z M47,54.4c-1,0.7-1.8,1.3-2.7,1.8s-1.1,1.1-0.9,2.1c1.2,5.2,2.3,10.5,3.5,15.7
	c0.7,3.2,0.7,3.1,3.9,3.2c1.2,0,1.7-0.4,2-1.6c1-4.9,2.1-9.7,3.1-14.6c0.3-1.5,0.6-2.9,0.9-4.7c-1.4,0.6-2.5,1.1-3.6,1.6
	c-0.6-1.6-1.1-3-1.8-4.8c-1,2.4-1.9,4.5-2.9,6.9C48,58,47.6,56.2,47,54.4z"/>
<path d="M49.9,99.7c-2.2-0.2-3.9-1-4.8-3c-0.4-0.8-0.9-1.2-1.7-1.5c-2.5-0.8-4.3-3.2-4.4-5.9c0-0.8,0.2-1.2,1.1-1.2
	c6.6,0,13.3,0,19.8,0c1,0,1.2,0.4,1.1,1.3c-0.1,2.6-2,5-4.6,5.8c-0.7,0.2-1.1,0.5-1.5,1.3C53.8,98.6,52.1,99.6,49.9,99.7z"/>
<path d="M49.9,86.7c-3,0-5.9,0-8.9,0c-2.1,0-3.6-1.4-3.6-3.3s1.4-3.3,3.5-3.3c6,0,12,0,17.9,0c2,0,3.5,1.5,3.4,3.3
	c0,1.9-1.4,3.3-3.5,3.3C55.8,86.7,52.8,86.7,49.9,86.7z"/>
<path d="M14.1,68.8c-0.2-0.2-0.5-0.3-0.6-0.5c0-0.3,0.1-0.7,0.3-0.9c1-0.7,2-1.4,3-2.1c1.9-1.3,3.8-2.7,5.8-4
	c0.3-0.2,0.8-0.1,1.1-0.1c-0.1,0.4-0.1,0.9-0.3,1.1c-2.9,2.1-5.9,4.1-8.8,6.2C14.5,68.7,14.3,68.7,14.1,68.8z"/>
<path d="M86.7,68.1c-0.1,0.2-0.3,0.5-0.4,0.5c-0.3,0-0.8,0-1-0.1c-2.2-1.5-4.4-3.1-6.6-4.6c-0.7-0.5-1.4-0.9-2-1.4
	c-0.3-0.2-0.3-0.7-0.4-1c0.4,0,0.9-0.2,1.1,0c3,2,5.9,4.1,8.9,6.1C86.4,67.6,86.5,67.9,86.7,68.1z"/>
<path d="M32.8,16.3c-0.5,0.1-0.9,0.3-1.1,0.2c-0.3-0.1-0.5-0.5-0.7-0.9c-1.7-2.7-3.3-5.5-5-8.2c-0.3-0.5-0.9-1.1-0.1-1.5
	c0.2-0.1,0.9,0.4,1.2,0.8c1.7,2.8,3.4,5.6,5.1,8.4C32.4,15.4,32.5,15.7,32.8,16.3z"/>
<path d="M67.6,16.7c0-0.4-0.2-0.9,0-1.2c1.4-2.4,2.8-4.7,4.3-7.1c0.4-0.7,0.8-1.4,1.2-2c0.2-0.3,0.7-0.3,1-0.4c0,0.3,0.2,0.8,0.1,1
	c-1.8,3.1-3.7,6.2-5.6,9.2c-0.1,0.2-0.4,0.4-0.7,0.5C67.9,16.7,67.8,16.7,67.6,16.7z"/>
<path d="M22,29.9c-0.5,0-1.1,0.2-1.5,0c-2.2-1.1-4.4-2.2-6.6-3.4c-0.8-0.4-1.7-0.8-2.5-1.3c-0.3-0.2-0.5-0.7-0.7-1
	c0.5-0.2,1-0.4,1.3-0.3c3.1,1.6,6.1,3.2,9.2,4.8c0.3,0.2,0.6,0.5,0.9,0.7C22,29.6,22,29.7,22,29.9z"/>
<path d="M78.8,30.2c-0.2-0.1-0.6-0.3-0.6-0.4c0.1-0.3,0.2-0.7,0.5-0.9c1.3-0.7,2.6-1.4,3.9-2.1c1.8-1,3.7-1.9,5.5-2.8
	c0.3-0.1,0.7,0,1.1,0.1c-0.2,0.4-0.3,0.9-0.6,1.1c-3.1,1.7-6.2,3.3-9.3,4.9C79.3,30.1,79.1,30.1,78.8,30.2z"/>
<path d="M7.6,46.2c0,0-0.3,0.1-0.6,0c-0.3-0.1-0.5-0.4-0.7-0.6c0.2-0.2,0.4-0.5,0.7-0.7c0.2,0,0.5,0,0.8,0c3.2-0.2,6.4-0.4,9.6-0.6
	c0.1,0,0.3-0.1,0.4,0c0.3,0.2,0.6,0.4,1,0.6c-0.3,0.2-0.6,0.6-0.9,0.7C14.5,45.8,11.1,46,7.6,46.2z"/>
<path d="M92.2,46.2c-3.1-0.2-6.1-0.4-9.2-0.6c-0.3,0-0.7,0-1-0.1c-0.3-0.1-0.5-0.4-0.7-0.6c0.3-0.2,0.5-0.6,0.8-0.6
	c1.5,0,2.9,0.1,4.4,0.2c1.9,0.1,3.9,0.2,5.8,0.4c0.5,0.1,0.9,0.5,1.4,0.8c-0.5,0.3-0.9,0.5-1.4,0.8C92.3,46.4,92.3,46.3,92.2,46.2z"
	/>
<path d="M51.4,6.4c0,1.7,0,3.4,0,5.1c0,0.4-0.4,0.7-0.6,1c-0.2-0.3-0.6-0.6-0.6-1c0-3.5,0-7,0-10.5c0-0.3,0.4-0.6,0.6-1
	c0.2,0.3,0.6,0.7,0.6,1C51.4,2.8,51.4,4.6,51.4,6.4z"/>
</svg>
