<?xml version="1.0" encoding="utf-8"?>
<!-- Generator: Adobe Illustrator 18.1.1, SVG Export Plug-In . SVG Version: 6.00 Build 0)  -->
<svg version="1.1" id="Layer_1" xmlns="http://www.w3.org/2000/svg" xmlns:xlink="http://www.w3.org/1999/xlink" x="0px" y="0px"
	 viewBox="0 0 50.6 38" enable-background="new 0 0 50.6 38" xml:space="preserve">
<g>
	<path d="M4.2,27.3c0.4-0.9,0.8-1.8,1.2-2.7c3-6.8,6-13.7,8.9-20.5c0.1-0.2,0.2-0.4,0.3-0.6c0-0.1,0.1-0.1,0.2-0.1c1.5,0,3,0,4.5,0
		c0.1,0,0.2,0.1,0.2,0.2c1.2,2.7,2.3,5.4,3.5,8.1c2.2,5.1,4.4,10.1,6.6,15.2c0,0.1,0.1,0.1,0.1,0.2c0.1-0.1,0-0.1,0-0.2
		c0-4.1,0-8.1,0-12.2c0-3.7,0-7.4,0-11c0-0.2,0-0.2,0.2-0.2c1.3,0,2.7,0,4,0c0.2,0,0.2,0,0.2,0.2c0,3.2,0,6.5,0,9.7
		c0,0.2,0,0.2,0.2,0.2c3.7,0,7.4,0,11.1,0c0.2,0,0.2,0,0.2-0.2c0-3.2,0-6.5,0-9.7c0-0.2,0-0.2,0.2-0.2c1.3,0,2.7,0,4,0
		c0.1,0,0.2,0,0.2,0.2c0,7.9,0,15.8,0,23.7c0,0.1,0,0.2-0.2,0.2c-1.3,0-2.7,0-4,0c-0.2,0-0.2-0.1-0.2-0.2c0-3.1,0-6.2,0-9.3
		c0-0.2,0-0.2-0.2-0.2c-3.7,0-7.4,0-11,0c-0.2,0-0.2,0-0.2,0.2c0,3.1,0,6.2,0,9.3c0,0.2,0,0.2-0.2,0.2c-2.9,0-5.8,0-8.7,0
		c-0.2,0-0.2,0-0.3-0.2c-0.6-1.4-1.2-2.8-1.8-4.2c-0.1-0.1-0.1-0.2-0.3-0.2c-3.9,0-7.9,0-11.8,0c-0.1,0-0.2,0-0.3,0.2
		c-0.6,1.4-1.2,2.8-1.8,4.2c-0.1,0.1-0.1,0.2-0.2,0.2c-1.5,0-2.9,0-4.4,0C4.3,27.3,4.3,27.3,4.2,27.3z M17,8.4
		c-1.4,3.4-2.9,6.8-4.3,10.2c2.9,0,5.8,0,8.6,0C19.9,15.2,18.5,11.8,17,8.4z"/>
	<path d="M3.3,13.4c-0.1,0-0.2,0-0.3-0.1c-0.7-1-1.4-1.9-2.1-2.9c-1.1-1.8-1.2-3.6-0.4-5.5C0.9,4,1.4,3.1,1.8,2.2
		c0.1-0.3,0.3-0.3,0.4,0C2.8,3,3.5,3.8,4.1,4.7c1.2,1.8,1.4,3.7,0.6,5.8c-0.3,0.8-0.7,1.6-1.1,2.4c0,0,0,0.1,0,0.1c0,0,0,0,0,0
		c0,0,0,0,0,0.1l0,0c0,0,0,0,0,0.1C3.4,13.2,3.4,13.3,3.3,13.4z"/>
	<path d="M3.3,13.4c0.1-0.1,0.1-0.3,0.2-0.4c0,0,0,0,0-0.1c0,0,0,0,0,0c0,0,0.1,0,0-0.1c0,0,0,0,0,0c0.1,0,0.1-0.1,0.1-0.1
		c0.5-0.8,1.1-1.7,1.5-2.5c0.4-0.7,0.6-1.4,0.6-2.1C6,6.8,5.6,5.6,5,4.5C4.7,4,4.5,3.5,4.2,3.1c-0.1-0.1,0-0.2,0-0.2
		C5,2.2,5.7,1.6,6.4,0.9c0.2-0.2,0.5-0.5,0.7-0.7C7.4,0,7.6,0.1,7.6,0.4c0.3,1.3,0.6,2.7,0.9,4c0.3,2-0.1,3.9-1.4,5.5
		c-0.4,0.6-1,1-1.5,1.5c-0.7,0.6-1.4,1.2-2,1.9C3.5,13.3,3.4,13.5,3.3,13.4z"/>
	<path d="M28.9,33c0-0.8,0-1.6,0-2.5c0-0.1,0-0.2,0.2-0.2c0.8,0,1.6,0,2.3,0c0.9,0,1.6,0.5,1.7,1.4c0.2,0.9-0.2,1.7-1.1,2
		c-0.2,0-0.1,0.1,0,0.1c0.5,0.5,0.9,1.1,1.4,1.6c0,0,0.1,0.1,0.1,0.1c0,0.1-0.1,0-0.1,0c-0.3,0-0.6,0-0.9,0c-0.1,0-0.2,0-0.2-0.1
		c-0.4-0.5-0.9-1-1.3-1.6c-0.1-0.1-0.1-0.1-0.2-0.1c-0.2,0-0.5,0-0.7,0c-0.1,0-0.1,0-0.1,0.1c0,0.5,0,1,0,1.5c0,0.1,0,0.2-0.2,0.2
		c-0.2,0-0.4,0-0.6,0c-0.2,0-0.2,0-0.2-0.2C28.9,34.7,28.9,33.8,28.9,33z M30.8,33c0.2,0,0.4,0,0.6,0c0.5,0,0.9-0.3,0.9-0.8
		c0-0.5-0.3-0.9-0.9-0.9c-0.5,0-0.9,0-1.4,0c-0.1,0-0.1,0-0.1,0.1c0,0.5,0,0.9,0,1.4c0,0.1,0,0.1,0.1,0.1C30.3,33,30.5,33,30.8,33z"
		/>
	<path d="M42.1,33.6c0-1,0-2,0-3c0-0.2,0-0.2,0.2-0.2c0.2,0,0.4,0,0.6,0c0.1,0,0.1,0,0.1,0.1c0,1.7,0,3.4,0,5c0,0.1,0,0.1-0.1,0.1
		c0,0,0,0,0,0c-0.4,0.1-0.6-0.1-0.8-0.4c-0.8-1-1.6-2.1-2.3-3.1c0,0.1,0,0.1,0,0.2c0,1.1,0,2.1,0,3.2c0,0.1,0,0.2-0.2,0.2
		c-0.2,0-0.5,0-0.7,0c-0.1,0-0.1,0-0.1-0.1c0-1.7,0-3.4,0-5c0-0.1,0-0.1,0.1-0.1c0.7,0,0.7,0,1.1,0.5c0.7,0.9,1.3,1.7,2,2.6
		C42,33.5,42,33.6,42.1,33.6z"/>
	<path d="M50,33.7c0,0.3,0,0.7,0,1c0,0.1,0,0.2-0.1,0.2c-1,1.2-2.8,1-3.7,0.3c-0.5-0.4-0.8-1-0.9-1.6c-0.1-0.7,0-1.5,0.3-2.1
		c0.5-1,1.4-1.4,2.5-1.3c0.7,0,1.2,0.3,1.7,0.7c0.1,0.1,0.1,0.1,0,0.2c-0.2,0.1-0.3,0.3-0.4,0.5c-0.1,0.1-0.1,0.1-0.2,0
		c-0.7-0.6-1.8-0.6-2.4,0.1c-0.6,0.6-0.7,1.8-0.2,2.5c0.3,0.4,0.6,0.6,1.1,0.7c0.5,0.1,1,0,1.4-0.3c0.1-0.1,0.1-0.1,0.1-0.2
		c0-0.2,0-0.4,0-0.7c0-0.1,0-0.2-0.2-0.2c-0.3,0-0.7,0-1,0c-0.1,0-0.1,0-0.1-0.1c0-0.2,0-0.4,0-0.7c0-0.1,0-0.1,0.1-0.1
		c0.7,0,1.3,0,2,0c0.1,0,0.1,0,0.1,0.1C50,33.1,50,33.4,50,33.7z"/>
	<path d="M22.9,33c0-0.8,0-1.6,0-2.5c0-0.1,0-0.2,0.2-0.2c1.2,0,2.4,0,3.5,0c0.1,0,0.2,0,0.2,0.2c0,0.2,0,0.4,0,0.7
		c0,0.1,0,0.2-0.2,0.2c-0.8,0-1.7,0-2.5,0c-0.1,0-0.2,0-0.2,0.2c0,0.3,0,0.6,0,0.9c0,0.1,0,0.2,0.2,0.2c0.8,0,1.6,0,2.5,0
		c0.1,0,0.2,0,0.2,0.2c0,0.2,0,0.4,0,0.6c0,0.2,0,0.2-0.2,0.2c-0.8,0-1.6,0-2.4,0c-0.1,0-0.2,0-0.2,0.2c0,0.3,0,0.6,0,0.9
		c0,0.1,0,0.2,0.2,0.2c0.9,0,1.7,0,2.6,0c0.1,0,0.2,0,0.2,0.2c0,0.2,0,0.5,0,0.7c0,0.1,0,0.1-0.1,0.1c-1.2,0-2.4,0-3.6,0
		c-0.1,0-0.1-0.1-0.1-0.1C22.9,34.7,22.9,33.8,22.9,33z"/>
	<path d="M15.8,35.7c-0.3,0-0.6,0-0.9,0c-0.1,0-0.1,0-0.1-0.1c-0.1-0.3-0.2-0.5-0.3-0.8c0-0.1-0.1-0.1-0.2-0.1c-0.8,0-1.6,0-2.4,0
		c-0.1,0-0.2,0-0.2,0.1c-0.1,0.3-0.2,0.5-0.3,0.8c0,0.1-0.1,0.1-0.2,0.1c-0.3,0-0.6,0-0.9,0c0-0.1,0-0.1,0-0.1
		c0.7-1.7,1.5-3.3,2.2-5c0-0.1,0.1-0.1,0.2-0.1c0.3,0,0.5,0,0.8,0c0.1,0,0.1,0,0.2,0.1C14.3,32.2,15,33.9,15.8,35.7
		C15.8,35.6,15.8,35.6,15.8,35.7z M13,31.5c-0.3,0.8-0.6,1.5-0.9,2.2c0.6,0,1.3,0,1.9,0C13.6,33,13.3,32.3,13,31.5z"/>
	<path d="M6.9,30.3c0.7,0,1.3,0.3,1.9,0.7c0.1,0.1,0.1,0.1,0,0.2c-0.2,0.2-0.3,0.3-0.5,0.5c-0.1,0.1-0.1,0.1-0.2,0
		c-0.6-0.5-1.6-0.6-2.3-0.1c-0.5,0.4-0.7,1-0.6,1.7c0.1,0.6,0.3,1.1,0.9,1.4c0.7,0.3,1.4,0.2,2-0.3c0.1-0.1,0.1-0.1,0.2,0
		c0.2,0.2,0.3,0.3,0.5,0.5c0.1,0.1,0.1,0.1,0,0.2c-0.6,0.5-1.3,0.7-2.1,0.7c-0.5,0-0.9-0.1-1.3-0.4c-0.6-0.4-0.9-0.9-1.1-1.6
		c-0.2-0.8-0.1-1.5,0.2-2.2C5,30.7,5.9,30.3,6.9,30.3z"/>
	<path d="M19.2,33.5c0,0.7,0,1.4,0,2c0,0.1,0,0.2-0.1,0.2c-0.2,0-0.4,0-0.7,0c-0.1,0-0.2,0-0.2-0.2c0-1.3,0-2.7,0-4
		c0-0.2,0-0.2-0.2-0.2c-0.4,0-0.8,0-1.3,0c-0.1,0-0.2,0-0.2-0.2c0-0.2,0-0.4,0-0.6c0-0.1,0-0.1,0.1-0.1c1.3,0,2.6,0,4,0
		c0.1,0,0.1,0,0.1,0.1c0,0.2,0,0.4,0,0.6c0,0.1,0,0.2-0.2,0.2c-0.4,0-0.9,0-1.3,0c-0.1,0-0.1,0-0.1,0.1
		C19.2,32.1,19.2,32.8,19.2,33.5z"/>
	<path d="M35.4,33c0-0.8,0-1.6,0-2.5c0-0.2,0-0.2,0.2-0.2c0.2,0,0.4,0,0.6,0c0.2,0,0.2,0,0.2,0.2c0,1.2,0,2.4,0,3.7
		c0,0.4,0,0.8,0,1.2c0,0.2,0,0.2-0.2,0.2c-0.2,0-0.4,0-0.6,0c-0.2,0-0.2,0-0.2-0.2C35.4,34.7,35.4,33.8,35.4,33z"/>
	<path d="M3.5,12.9C3.6,12.9,3.6,13,3.5,12.9C3.5,12.9,3.5,12.9,3.5,12.9z"/>
	<path d="M3.5,13C3.5,13,3.5,13,3.5,13C3.5,13,3.5,13,3.5,13z"/>
</g>
</svg>
