<?xml version="1.0" encoding="utf-8"?>
<!-- Generator: Adobe Illustrator 18.1.1, SVG Export Plug-In . SVG Version: 6.00 Build 0)  -->
<svg version="1.1" id="Layer_1" xmlns="http://www.w3.org/2000/svg" xmlns:xlink="http://www.w3.org/1999/xlink" x="0px" y="0px"
	 viewBox="0 0 100 100" enable-background="new 0 0 100 100" xml:space="preserve">
<path d="M45.1,85.2c14.3,0,28.7,0,43,0c0.7,0,1.4,0.5,2.2,0.7c-0.4,0.6-0.6,1.4-1.1,1.8c-2.5,2.2-5,4.4-7.6,6.5
	C81,94.7,80.1,95,79.4,95c-22.8,0-45.5,0-68.3,0c-0.8,0-1.6-0.3-2.2-0.8C6.2,92,3.6,89.8,1,87.5c-0.4-0.4-0.6-1.1-0.9-1.6
	c0.6-0.3,1.2-0.7,1.8-0.7C16.3,85.2,30.7,85.2,45.1,85.2z"/>
<path d="M4.3,32.6c27.9,0,55.7,0,83.5,0c-0.2,1.5-0.3,2.9-0.5,4.5c1.7,0,3.3,0,4.9,0c5.7,0,8.2,2.6,7.7,8.3c-0.5,5-2.4,9.6-5.8,13.3
	c-3.6,4-7.7,4.7-12.7,2.4c-0.5-0.2-1-0.5-1.5-0.7c-1.6,2.5-3,5.1-4.7,7.5C69.5,76,62.1,81.6,52.1,83.1c-15.6,2.2-27.6-3.5-36.2-16.6
	C9.4,56.7,6.1,45.7,4.4,34.2C4.3,33.7,4.3,33.2,4.3,32.6z M7.3,40.7C9.8,51.3,13.5,61,20.2,69.4C33.3,86,58.5,85.8,71.3,70.2
	c5.9-7.1,9.6-15.3,12.1-24.1c1.1-3.9,1.8-7.8,2.8-11.9c-26.9,0-53.3,0-80,0c0.1,0.9,0.3,1.7,0.3,2.4c0,2,1,2.4,2.8,2.4
	c10.3-0.1,20.7,0,31,0c0.5,0,1-0.1,1.5,0.1c0.4,0.1,0.7,0.6,1,0.8c-0.4,0.3-0.7,0.6-1.1,0.8c-0.4,0.1-0.9,0-1.3,0
	c-10.3,0-20.6,0-30.8,0C8.9,40.7,8.2,40.7,7.3,40.7z M87.1,39.8c-2,6.1-3.9,12.1-5.8,18.1c3,2.2,6.6,2.6,9.2,0.4
	c4.5-3.7,6.5-8.7,6.7-14.4c0.1-2.6-1.2-3.9-3.9-4C91.3,39.7,89.1,39.8,87.1,39.8z"/>
<path d="M47.9,12.1c-0.2,2.4-1.7,3.8-3.5,5.1c-1.2,0.8-2.4,1.6-3.5,2.5c-1.9,1.8-2,3.8-0.2,5.7c0.9,1,2.1,1.8,3.1,2.7
	c0.3,0.3,0.3,0.9,0.5,1.3c-0.5,0-0.9,0.1-1.3,0.1c-0.3,0-0.6-0.3-0.8-0.5c-6-4.2-5.8-9.1,0.5-12.8c4.6-2.7,4.7-5.3,0.3-8.3
	c-0.8-0.5-1.6-0.9-2.4-1.5c-0.2-0.2-0.3-0.8-0.2-1.1c0-0.2,0.6-0.5,0.8-0.4c2.7,1.5,5.5,3,6.5,6.3C47.8,11.5,47.9,11.9,47.9,12.1z"
	/>
<path d="M48.3,22.5c0.1-2.5,1.6-4.1,3.4-5.4c1.1-0.8,2.4-1.5,3.4-2.3c2-1.6,2.1-3.3,0.3-5.1c-1.1-1.1-2.6-1.9-3.8-2.9
	c-0.4-0.3-0.5-1-0.8-1.5c0.5,0,1.2-0.2,1.6,0.1c1.6,1,3.3,2.1,4.6,3.5c2,2.2,1.7,4.6-0.3,6.7c-0.7,0.7-1.6,1.3-2.5,1.9
	c-0.4,0.3-0.8,0.5-1.1,0.7c-4,2.7-4.1,5.8-0.3,8.8c0.6,0.4,1.2,0.8,1.7,1.3c0.2,0.2,0.3,0.8,0.2,1.1c0,0.2-0.7,0.3-1,0.3
	C51.4,29.2,48.3,25.1,48.3,22.5z"/>
<path d="M16.1,53.6c20,0,39.9,0,59.7,0c0,0.2,0.1,0.4,0,0.5c-3.3,8.4-8.2,15.6-16.2,20.2c-12,6.9-27,3.7-36.2-7.6
	c-2.9-3.6-5.2-7.6-7-11.9C16.4,54.5,16.3,54.1,16.1,53.6z"/>
</svg>
